<svg preserveAspectRatio="none" width="100%" height="100%" overflow="visible" style="display: block;" viewBox="0 0 115 65" fill="none" xmlns="http://www.w3.org/2000/svg">
<g id="logo" clip-path="url(#clip0_103_694)">
<path id="Vector" d="M29.2474 1.85714C33.5879 1.85714 37.0477 3.53053 39.6268 6.87729C42.206 10.1928 43.0867 14.1495 42.2689 18.7474C41.4511 23.4078 39.2809 27.2394 35.7581 30.2421C32.2668 33.2135 28.1622 34.6992 23.4443 34.6992H10.3284L16.1315 1.85714H29.2474ZM36.0412 18.0905C36.5444 15.0878 36.0727 12.6638 34.6258 10.8183C33.179 8.97293 31.0244 8.05023 28.1622 8.05023H21.5571L17.9243 28.5062H24.152C27.1715 28.5062 29.7663 27.5365 31.9366 25.5973C34.1383 23.658 35.5065 21.1558 36.0412 18.0905ZM48.1118 14.0087C50.7853 11.7254 53.8677 10.5838 57.359 10.5838C60.8502 10.5838 63.6024 11.788 65.6154 14.1964C67.6284 16.5735 68.3046 19.498 67.6441 22.9699C67.5812 23.658 67.361 24.4869 66.9836 25.4565H49.1497C49.2755 26.9579 49.8574 28.0683 50.8954 28.7877C51.9333 29.5071 53.2386 29.8668 54.8113 29.8668C57.1702 29.8668 59.1046 29.0692 60.6143 27.474L64.9077 30.8989C62.2656 33.8704 58.7429 35.3561 54.3395 35.3561C50.4393 35.3561 47.467 34.1206 45.4225 31.6496C43.4096 29.1786 42.7019 26.129 43.2995 22.5008C43.8342 19.0914 45.4383 16.2608 48.1118 14.0087ZM49.999 20.7179H61.9825C61.9511 19.1227 61.4636 17.9498 60.52 17.1991C59.6078 16.4171 58.4284 16.0262 56.9815 16.0262C55.4089 16.0262 54.0092 16.4328 52.7825 17.246C51.5873 18.0592 50.6595 19.2165 49.999 20.7179ZM90.3423 11.2406H96.4285L92.2767 34.6992H86.1905L86.568 32.5411C84.5235 34.4177 81.9129 35.3561 78.7362 35.3561C75.182 35.3561 72.5399 34.058 70.81 31.462C69.0801 28.8659 68.5454 25.8475 69.2059 22.4069C69.8035 19.0601 71.3133 16.2608 73.7352 14.0087C76.1885 11.7254 79.1136 10.5838 82.5105 10.5838C85.8446 10.5838 88.2664 11.8505 89.7762 14.3841L90.3423 11.2406ZM80.6234 29.5853C82.4476 29.5853 84.0675 29.0223 85.4828 27.8962C86.8982 26.7389 87.8104 25.222 88.2193 23.3453L88.3136 22.5946C88.5652 20.6866 88.1563 19.1696 87.0869 18.0436C86.049 16.9176 84.6336 16.3546 82.8408 16.3546C80.9851 16.3546 79.3495 16.9489 77.9341 18.1374C76.5187 19.2947 75.6381 20.8899 75.2921 22.923C74.9461 24.8935 75.2763 26.5044 76.2828 27.7555C77.2893 28.9753 78.7362 29.5853 80.6234 29.5853ZM96.4732 34.6992L99.0681 19.9672L102.512 0.449623H108.598L105.107 20.2018L102.559 34.6992H96.4732Z" fill="var(--fill-0, #2487F8)"/>
<path id="Vector_2" d="M107.242 39.9071C109.884 39.9071 111.928 40.7829 113.375 42.5344C114.822 44.286 115.278 46.6475 114.743 49.6189L112.196 64.0226H106.11L108.516 50.3696C108.799 48.7744 108.579 47.5702 107.855 46.757C107.163 45.9438 106.11 45.5371 104.694 45.5371C103.247 45.5371 101.974 45.9594 100.873 46.8039C99.8033 47.6484 99.0484 48.9152 98.6081 50.6042L96.2491 64.0226H90.163L94.3148 40.5639H100.401L99.9291 43.0974C101.785 40.9705 104.222 39.9071 107.242 39.9071Z" fill="var(--fill-0, #2487F8)"/>
<path id="Vector_3" d="M81.3374 64.0226L85.4892 40.5639H91.5754L87.4236 64.0226H81.3374Z" fill="var(--fill-0, #2487F8)"/>
<path id="Vector_4" d="M76.6686 40.5639H82.7548L78.603 64.0226H72.5168L72.8943 61.8644C70.8498 63.7411 68.2392 64.6794 65.0625 64.6794C61.5083 64.6794 58.8662 63.3814 57.1363 60.7853C55.4064 58.1892 54.8717 55.1708 55.5322 51.7302C56.1298 48.3835 57.6396 45.5841 60.0615 43.332C62.5148 41.0487 65.4399 39.9071 68.8368 39.9071C72.1709 39.9071 74.5927 41.1738 76.1025 43.7074L76.6686 40.5639ZM66.9497 58.9086C68.7739 58.9086 70.3938 58.3456 71.8091 57.2195C73.2245 56.0623 74.1367 54.5453 74.5456 52.6686L74.6399 51.9179C74.8915 50.0099 74.4827 48.4929 73.4132 47.3669C72.3753 46.2409 70.9599 45.6779 69.1671 45.6779C67.3114 45.6779 65.6758 46.2722 64.2604 47.4608C62.845 48.618 61.9644 50.2132 61.6184 52.2463C61.2724 54.2168 61.6027 55.8277 62.6091 57.0788C63.6156 58.2986 65.0625 58.9086 66.9497 58.9086Z" fill="var(--fill-0, #2487F8)"/>
<path id="Vector_5" d="M47.3611 39.9071C50.0029 39.9071 52.0473 40.7829 53.4942 42.5344C54.941 44.286 55.3971 46.6475 54.8624 49.6189L52.3147 64.0226H46.2288L48.6349 50.3696C48.918 48.7744 48.6978 47.5702 47.9744 46.757C47.2824 45.9438 46.2288 45.5371 44.8134 45.5371C43.3666 45.5371 42.0927 45.9594 40.9918 46.8039C39.9224 47.6484 39.1676 48.9308 38.7272 50.6511L36.3683 64.0226H30.2821L36.0852 31.1805H42.1713L40.0483 43.1444C41.8725 40.9862 44.3101 39.9071 47.3611 39.9071Z" fill="var(--fill-0, #2487F8)"/>
<path id="Vector_6" d="M14.9716 64.6794C11.6691 64.6794 8.80684 63.8818 6.38496 62.2866C3.96307 60.6914 2.23316 58.5645 1.19521 55.9059C0.18871 53.2159 -0.0471867 50.2914 0.487514 47.1323C1.27384 42.3155 3.507 38.3432 7.18701 35.2153C10.8985 32.0875 15.1761 30.5236 20.0198 30.5236C23.1651 30.5236 25.8701 31.2117 28.1347 32.588C30.4308 33.9642 32.1292 35.8722 33.2301 38.3119L27.2855 41.4084C25.8072 38.3432 23.1809 36.8105 19.4065 36.8105C16.2612 36.8105 13.5248 37.8114 11.1973 39.8132C8.9012 41.815 7.48581 44.4111 6.95111 47.6015C6.38496 50.7606 6.8882 53.3411 8.46085 55.3429C10.0335 57.3447 12.3453 58.3456 15.3962 58.3456C19.4851 58.3456 22.6776 56.7504 24.9737 53.56L30.305 56.985C28.5121 59.3621 26.2632 61.2388 23.5583 62.615C20.8848 63.9913 18.0226 64.6794 14.9716 64.6794Z" fill="var(--fill-0, #2487F8)"/>
</g>
<defs>
<clipPath id="clip0_103_694">
<rect width="115" height="65" fill="white"/>
</clipPath>
</defs>
</svg>
