<svg preserveAspectRatio="none" width="100%" height="100%" overflow="visible" style="display: block;" viewBox="0 0 27 24" fill="none" xmlns="http://www.w3.org/2000/svg">
<path id="Vector" d="M23.625 20.25C23.625 21.1451 23.2694 22.0035 22.6365 22.6365C22.0036 23.2694 21.1451 23.625 20.25 23.625H3.375C2.47989 23.625 1.62145 23.2694 0.988515 22.6365C0.355579 22.0035 0 21.1451 0 20.25V6.75C-4.4726e-07 5.85548 0.355116 4.99755 0.987321 4.36471C1.61953 3.73187 2.4771 3.37589 3.37163 3.375C3.37163 2.47989 3.7272 1.62145 4.36014 0.988515C4.99307 0.355579 5.85152 0 6.74662 0H23.6216C24.5167 0 25.3752 0.355579 26.0081 0.988515C26.641 1.62145 26.9966 2.47989 26.9966 3.375V16.875C26.9966 17.7695 26.6415 18.6275 26.0093 19.2603C25.3771 19.8931 24.5195 20.2491 23.625 20.25ZM23.6216 1.6875H6.74662C6.29907 1.6875 5.86985 1.86529 5.55338 2.18176C5.23691 2.49822 5.05912 2.92745 5.05912 3.375H20.25C21.1451 3.375 22.0036 3.73058 22.6365 4.36351C23.2694 4.99645 23.625 5.85489 23.625 6.75V18.5625C24.072 18.5616 24.5003 18.3834 24.8161 18.0671C25.1318 17.7507 25.3091 17.322 25.3091 16.875V3.375C25.3091 2.92745 25.1313 2.49822 24.8149 2.18176C24.4984 1.86529 24.0692 1.6875 23.6216 1.6875V1.6875ZM3.375 5.0625C2.92745 5.0625 2.49823 5.24029 2.18176 5.55676C1.86529 5.87323 1.6875 6.30245 1.6875 6.75V20.25L6.15262 16.2776C6.29055 16.1402 6.47176 16.0547 6.66552 16.0356C6.85929 16.0166 7.05368 16.0651 7.21575 16.173L11.7045 19.1649L17.9651 12.9043C18.0903 12.7791 18.2516 12.6963 18.4264 12.6679C18.6011 12.6394 18.7804 12.6666 18.9388 12.7457L21.9375 16.0312V6.75C21.9375 6.30245 21.7597 5.87323 21.4432 5.55676C21.1268 5.24029 20.6976 5.0625 20.25 5.0625H3.375V5.0625Z" fill="var(--fill-0, #767676)"/>
</svg>
