<svg preserveAspectRatio="none" width="100%" height="100%" overflow="visible" style="display: block;" viewBox="0 0 21 21" fill="none" xmlns="http://www.w3.org/2000/svg">
<path id="Vector" d="M19.3209 1.00003L12.8209 19C12.777 19.0958 12.7066 19.1769 12.6179 19.2338C12.5293 19.2907 12.4262 19.3209 12.3209 19.3209C12.2156 19.3209 12.1125 19.2907 12.0238 19.2338C11.9352 19.1769 11.8647 19.0958 11.8209 19L8.32087 12L1.32087 8.50003C1.22513 8.45615 1.144 8.38571 1.08712 8.29708C1.03024 8.20845 1 8.10534 1 8.00003C1 7.89471 1.03024 7.79161 1.08712 7.70298C1.144 7.61434 1.22513 7.5439 1.32087 7.50003L19.3209 1.00003Z" fill="var(--fill-0, #F9F9F9)" stroke="var(--stroke-0, #F9F9F9)" stroke-width="2" stroke-linecap="round" stroke-linejoin="round"/>
</svg>
