<svg preserveAspectRatio="none" width="100%" height="100%" overflow="visible" style="display: block;" viewBox="0 0 17 17" fill="none" xmlns="http://www.w3.org/2000/svg">
<path id="Vector (Stroke)" fill-rule="evenodd" clip-rule="evenodd" d="M3.60593 1.36739C4.9402 0.475854 6.50888 0 8.1136 0V0.75L8.11365 0C10.2654 0.000136971 12.3291 0.854999 13.8506 2.37655C15.3722 3.89811 16.2271 5.96174 16.2272 8.11355V8.11359C16.2272 9.71831 15.7513 11.287 14.8598 12.6213C13.9683 13.9555 12.7011 14.9955 11.2185 15.6096C9.73597 16.2237 8.1046 16.3844 6.53071 16.0713C4.95683 15.7582 3.51113 14.9855 2.37642 13.8508C1.24171 12.7161 0.468969 11.2704 0.155904 9.69648C-0.157161 8.12259 0.00351544 6.49122 0.617614 5.00866C1.23171 3.52609 2.27165 2.25892 3.60593 1.36739ZM8.1136 1.5C9.86759 1.50012 11.5497 2.19695 12.79 3.43721C14.0302 4.67748 14.7271 6.3596 14.7272 8.11359M8.11355 1.5C6.80552 1.50001 5.52687 1.88789 4.43928 2.61459C3.35168 3.3413 2.504 4.3742 2.00343 5.58268C1.50287 6.79116 1.3719 8.12093 1.62708 9.40384C1.88227 10.6868 2.51215 11.8652 3.43708 12.7901C4.36201 13.715 5.54044 14.3449 6.82335 14.6001C8.10626 14.8553 9.43603 14.7243 10.6445 14.2238C11.853 13.7232 12.8859 12.8755 13.6126 11.7879C14.3393 10.7003 14.7272 9.42167 14.7272 8.11364" fill="var(--fill-0, #2487F8)"/>
</svg>
