<svg preserveAspectRatio="none" width="100%" height="100%" overflow="visible" style="display: block;" viewBox="0 0 90 51" fill="none" xmlns="http://www.w3.org/2000/svg">
<g id="logo" clip-path="url(#clip0_103_702)">
<path id="Vector" d="M22.8892 1.45714C26.2862 1.45714 28.9938 2.7701 31.0123 5.39603C33.0308 7.99741 33.72 11.1019 33.08 14.7095C32.44 18.3661 30.7415 21.3725 27.9846 23.7284C25.2523 26.0598 22.04 27.2256 18.3477 27.2256H8.08308L12.6246 1.45714H22.8892ZM28.2062 14.1941C28.6 11.8381 28.2308 9.93618 27.0985 8.48824C25.9662 7.0403 24.28 6.31633 22.04 6.31633H16.8708L14.0277 22.3664H18.9015C21.2646 22.3664 23.2954 21.6056 24.9938 20.084C26.7169 18.5625 27.7877 16.5992 28.2062 14.1941ZM37.6527 10.9915C39.745 9.19994 42.1573 8.30418 44.8896 8.30418C47.6219 8.30418 49.7758 9.24902 51.3512 11.1387C52.9265 13.0038 53.4558 15.2985 52.9388 18.0226C52.8896 18.5625 52.7173 19.2128 52.4219 19.9736H38.465C38.5635 21.1516 39.0188 22.0228 39.8312 22.5872C40.6435 23.1517 41.665 23.4339 42.8958 23.4339C44.7419 23.4339 46.2558 22.8081 47.4373 21.5565L50.7973 24.2438C48.7296 26.5752 45.9727 27.7409 42.5265 27.7409C39.4742 27.7409 37.1481 26.7715 35.5481 24.8328C33.9727 22.894 33.4188 20.5012 33.8865 17.6544C34.305 14.9794 35.5604 12.7584 37.6527 10.9915ZM39.1296 16.2556H48.5081C48.4835 15.004 48.1019 14.0837 47.3635 13.4947C46.6496 12.8811 45.7265 12.5744 44.5942 12.5744C43.3635 12.5744 42.2681 12.8934 41.3081 13.5315C40.3727 14.1696 39.6465 15.0776 39.1296 16.2556ZM70.7027 8.81955H75.4658L72.2165 27.2256H67.4535L67.7488 25.5322C66.1488 27.0047 64.1058 27.7409 61.6196 27.7409C58.8381 27.7409 56.7704 26.7225 55.4165 24.6855C54.0627 22.6486 53.6442 20.2804 54.1612 17.5808C54.6288 14.9549 55.8104 12.7584 57.7058 10.9915C59.6258 9.19994 61.915 8.30418 64.5735 8.30418C67.1827 8.30418 69.0781 9.2981 70.2596 11.286L70.7027 8.81955ZM63.0965 23.2131C64.5242 23.2131 65.7919 22.7713 66.8996 21.8878C68.0073 20.9798 68.7212 19.7895 69.0412 18.3171L69.115 17.7281C69.3119 16.231 68.9919 15.0408 68.155 14.1573C67.3427 13.2738 66.235 12.8321 64.8319 12.8321C63.3796 12.8321 62.0996 13.2983 60.9919 14.2309C59.8842 15.1389 59.195 16.3906 58.9242 17.9857C58.6535 19.5318 58.9119 20.7957 59.6996 21.7774C60.4873 22.7345 61.6196 23.2131 63.0965 23.2131ZM75.5008 27.2256L77.5315 15.6666L80.2269 0.352781H84.99L82.2577 15.8506L80.2638 27.2256H75.5008Z" fill="var(--fill-0, #F9F9F9)"/>
<path id="Vector_2" d="M83.9285 31.3117C85.9962 31.3117 87.5962 31.9989 88.7285 33.3732C89.8608 34.7475 90.2177 36.6004 89.7992 38.9318L87.8054 50.2331H83.0423L84.9254 39.5208C85.1469 38.2692 84.9746 37.3243 84.4085 36.6863C83.8669 36.0482 83.0423 35.7291 81.9346 35.7291C80.8023 35.7291 79.8054 36.0605 78.9439 36.7231C78.1069 37.3857 77.5162 38.3796 77.1715 39.7048L75.3254 50.2331H70.5623L73.8115 31.8271H78.5746L78.2054 33.8149C79.6577 32.1461 81.5654 31.3117 83.9285 31.3117Z" fill="var(--fill-0, #F9F9F9)"/>
<path id="Vector_3" d="M63.6554 50.2331L66.9046 31.8271H71.6677L68.4185 50.2331H63.6554Z" fill="var(--fill-0, #F9F9F9)"/>
<path id="Vector_4" d="M60.0015 31.8271H64.7646L61.5154 50.2331H56.7523L57.0477 48.5397C55.4477 50.0122 53.4046 50.7484 50.9185 50.7484C48.1369 50.7484 46.0692 49.73 44.7154 47.6931C43.3615 45.6561 42.9431 43.2879 43.46 40.5883C43.9277 37.9624 45.1092 35.766 47.0046 33.999C48.9246 32.2075 51.2138 31.3117 53.8723 31.3117C56.4815 31.3117 58.3769 32.3056 59.5585 34.2935L60.0015 31.8271ZM52.3954 46.2206C53.8231 46.2206 55.0908 45.7788 56.1985 44.8953C57.3062 43.9873 58.02 42.7971 58.34 41.3246L58.4138 40.7356C58.6108 39.2386 58.2908 38.0483 57.4538 37.1648C56.6415 36.2813 55.5338 35.8396 54.1308 35.8396C52.6785 35.8396 51.3985 36.3059 50.2908 37.2384C49.1831 38.1465 48.4938 39.3981 48.2231 40.9933C47.9523 42.5394 48.2108 43.8032 48.9985 44.7849C49.7862 45.742 50.9185 46.2206 52.3954 46.2206Z" fill="var(--fill-0, #F9F9F9)"/>
<path id="Vector_5" d="M37.0652 31.3117C39.1327 31.3117 40.7327 31.9989 41.865 33.3732C42.9973 34.7475 43.3542 36.6004 42.9358 38.9318L40.9419 50.2331H36.179L38.0621 39.5208C38.2837 38.2692 38.1113 37.3243 37.5452 36.6863C37.0037 36.0482 36.179 35.7291 35.0713 35.7291C33.939 35.7291 32.9421 36.0604 32.0806 36.7231C31.2437 37.3857 30.6529 38.3919 30.3083 39.7417L28.4621 50.2331H23.699L28.2406 24.4647H33.0037L31.3421 33.8517C32.7698 32.1584 34.6775 31.3117 37.0652 31.3117Z" fill="var(--fill-0, #F9F9F9)"/>
<path id="Vector_6" d="M11.7169 50.7485C9.13231 50.7485 6.89231 50.1226 4.99692 48.871C3.10153 47.6194 1.74769 45.9506 0.935381 43.8646C0.147686 41.754 -0.0369287 39.4594 0.381533 36.9808C0.996919 33.2014 2.74461 30.0846 5.62461 27.6305C8.52923 25.1764 11.8769 23.9493 15.6677 23.9493C18.1292 23.9493 20.2462 24.4892 22.0185 25.569C23.8154 26.6488 25.1446 28.1459 26.0062 30.0601L21.3538 32.4897C20.1969 30.0846 18.1415 28.8821 15.1877 28.8821C12.7262 28.8821 10.5846 29.6674 8.76308 31.2381C6.96615 32.8087 5.85846 34.8457 5.44 37.3489C4.99692 39.8276 5.39077 41.8522 6.62154 43.4229C7.85231 44.9935 9.66154 45.7788 12.0492 45.7788C15.2492 45.7788 17.7477 44.5272 19.5446 42.024L23.7169 44.7113C22.3138 46.5764 20.5538 48.0489 18.4369 49.1287C16.3446 50.2085 14.1046 50.7485 11.7169 50.7485Z" fill="var(--fill-0, #F9F9F9)"/>
</g>
<defs>
<clipPath id="clip0_103_702">
<rect width="90" height="51" fill="white"/>
</clipPath>
</defs>
</svg>
