<svg width="234" height="132" viewBox="0 0 234 132" fill="none" xmlns="http://www.w3.org/2000/svg">
<path d="M59.0862 2.88C67.9182 2.88 74.9582 6.304 80.2062 13.152C85.4542 19.936 87.2462 28.032 85.5822 37.44C83.9182 46.976 79.5022 54.816 72.3342 60.96C65.2302 67.04 56.8782 70.08 47.2782 70.08H20.5902L32.3982 2.88H59.0862ZM72.9102 36.096C73.9342 29.952 72.9742 24.992 70.0302 21.216C67.0862 17.44 62.7022 15.552 56.8782 15.552H43.4382L36.0462 57.408H48.7182C54.8622 57.408 60.1422 55.424 64.5582 51.456C69.0382 47.488 71.8222 42.368 72.9102 36.096Z" fill="#2487F8"/>
<path d="M97.4712 27.744C102.911 23.072 109.183 20.736 116.287 20.736C123.391 20.736 128.991 23.2 133.087 28.128C137.183 32.992 138.559 38.976 137.215 46.08C137.087 47.488 136.639 49.184 135.871 51.168H99.5832C99.8392 54.24 101.023 56.512 103.135 57.984C105.247 59.456 107.903 60.192 111.103 60.192C115.903 60.192 119.839 58.56 122.911 55.296L131.647 62.304C126.271 68.384 119.103 71.424 110.143 71.424C102.207 71.424 96.1592 68.896 91.9992 63.84C87.9032 58.784 86.4632 52.544 87.6792 45.12C88.7672 38.144 92.0312 32.352 97.4712 27.744ZM101.311 41.472H125.695C125.631 38.208 124.639 35.808 122.719 34.272C120.863 32.672 118.463 31.872 115.519 31.872C112.319 31.872 109.471 32.704 106.975 34.368C104.543 36.032 102.655 38.4 101.311 41.472Z" fill="#2487F8"/>
<path d="M183.401 22.08H195.785L187.337 70.08H174.953L175.721 65.664C171.561 69.504 166.249 71.424 159.785 71.424C152.553 71.424 147.177 68.768 143.657 63.456C140.137 58.144 139.049 51.968 140.393 44.928C141.609 38.08 144.681 32.352 149.609 27.744C154.601 23.072 160.553 20.736 167.465 20.736C174.249 20.736 179.177 23.328 182.249 28.512L183.401 22.08ZM163.625 59.616C167.337 59.616 170.633 58.464 173.513 56.16C176.393 53.792 178.249 50.688 179.081 46.848L179.273 45.312C179.785 41.408 178.953 38.304 176.777 36C174.665 33.696 171.785 32.544 168.137 32.544C164.361 32.544 161.033 33.76 158.153 36.192C155.273 38.56 153.481 41.824 152.777 45.984C152.073 50.016 152.745 53.312 154.793 55.872C156.841 58.368 159.785 59.616 163.625 59.616Z" fill="#2487F8"/>
<path d="M195.876 70.08L208.164 0H220.548L208.26 70.08H195.876Z" fill="#2487F8"/>
<path d="M217.789 80.736C223.165 80.736 227.325 82.528 230.269 86.112C233.213 89.696 234.141 94.528 233.053 100.608L227.869 130.08H215.485L220.381 102.144C220.957 98.88 220.509 96.416 219.037 94.752C217.629 93.088 215.485 92.256 212.605 92.256C209.661 92.256 207.069 93.12 204.829 94.848C202.653 96.576 201.117 99.168 200.221 102.624L195.421 130.08H183.037L191.485 82.08H203.869L202.909 87.264C206.685 82.912 211.645 80.736 217.789 80.736Z" fill="#2487F8"/>
<path d="M165.078 130.08L173.526 82.08H185.91L177.462 130.08H165.078Z" fill="#2487F8"/>
<path d="M155.578 82.08H167.962L159.514 130.08H147.13L147.898 125.664C143.738 129.504 138.426 131.424 131.962 131.424C124.73 131.424 119.354 128.768 115.834 123.456C112.314 118.144 111.226 111.968 112.57 104.928C113.786 98.08 116.858 92.352 121.786 87.744C126.778 83.072 132.73 80.736 139.642 80.736C146.426 80.736 151.354 83.328 154.426 88.512L155.578 82.08ZM135.802 119.616C139.514 119.616 142.81 118.464 145.69 116.16C148.57 113.792 150.426 110.688 151.258 106.848L151.45 105.312C151.962 101.408 151.13 98.304 148.954 96C146.842 93.696 143.962 92.544 140.314 92.544C136.538 92.544 133.21 93.76 130.33 96.192C127.45 98.56 125.658 101.824 124.954 105.984C124.25 110.016 124.922 113.312 126.97 115.872C129.018 118.368 131.962 119.616 135.802 119.616Z" fill="#2487F8"/>
<path d="M95.9437 80.736C101.32 80.736 105.48 82.528 108.424 86.112C111.368 89.696 112.296 94.528 111.208 100.608L106.024 130.08H93.6397L98.5357 102.144C99.1117 98.88 98.6637 96.416 97.1917 94.752C95.7837 93.088 93.6397 92.256 90.7597 92.256C87.8157 92.256 85.2237 93.12 82.9837 94.848C80.8077 96.576 79.2717 99.2 78.3757 102.72L73.5757 130.08H61.1917L72.9997 62.88H85.3837L81.0637 87.36C84.7757 82.944 89.7357 80.736 95.9437 80.736Z" fill="#2487F8"/>
<path d="M30.0382 131.424C23.3182 131.424 17.4942 129.792 12.5662 126.528C7.63821 123.264 4.1182 118.912 2.0062 113.472C-0.041796 107.968 -0.521796 101.984 0.566204 95.52C2.1662 85.664 6.71021 77.536 14.1982 71.136C21.7502 64.736 30.4542 61.536 40.3102 61.536C46.7102 61.536 52.2142 62.944 56.8222 65.76C61.4942 68.576 64.9502 72.48 67.1902 77.472L55.0942 83.808C52.0862 77.536 46.7422 74.4 39.0622 74.4C32.6622 74.4 27.0942 76.448 22.3582 80.544C17.6862 84.64 14.8062 89.952 13.7182 96.48C12.5662 102.944 13.5902 108.224 16.7902 112.32C19.9902 116.416 24.6942 118.464 30.9022 118.464C39.2222 118.464 45.7182 115.2 50.3902 108.672L61.2382 115.68C57.5902 120.544 53.0142 124.384 47.5102 127.2C42.0702 130.016 36.2462 131.424 30.0382 131.424Z" fill="#2487F8"/>
</svg>



